<svg width="283" height="157" viewBox="0 0 283 157" fill="none" xmlns="http://www.w3.org/2000/svg">
<path d="M201.486 18.4873C201.486 26.5376 194.925 33.0779 186.813 33.0779C178.702 33.0779 172.141 26.5376 172.141 18.4873C172.141 10.4369 178.702 3.89663 186.813 3.89663C194.925 3.89663 201.486 10.4369 201.486 18.4873Z" stroke="#1E1E1E" stroke-width="3.3128"/>
<path d="M215.055 82.9245C215.055 113.313 190.29 137.987 159.691 137.987C129.092 137.987 104.327 113.313 104.327 82.9245C104.327 52.5363 129.092 27.8616 159.691 27.8616C190.29 27.8616 215.055 52.5363 215.055 82.9245Z" stroke="#FFC776" stroke-width="9.38625"/>
<path d="M214.213 68.8804L230.511 91.5987H197.914L214.213 68.8804Z" fill="#FFC776"/>
<path d="M180.135 5.11674L176.936 14.0654L170.589 5.20299L180.135 5.11674Z" fill="#1E1E1E"/>
<path d="M200.855 24.2943L196.15 15.5102L207.529 16.8793L200.855 24.2943Z" fill="#1E1E1E"/>
<path d="M282.85 138.275L260.017 154.491V122.058L282.85 138.275Z" fill="#FFC776"/>
<path d="M105.169 99.1716L88.8707 76.4533H121.467L105.169 99.1716Z" fill="#FFC776"/>
<line x1="159.968" y1="137.988" x2="270.672" y2="137.988" stroke="#FFC776" stroke-width="9.38625"/>
<path d="M116.239 138.275L104.615 146.383V130.166L116.239 138.275Z" fill="#FFC776"/>
<line x1="81.9214" y1="138.268" x2="110.705" y2="138.268" stroke="#FFC776" stroke-width="5.52133"/>
<rect y="61.1699" width="33.2113" height="12.1164" fill="#FFC776"/>
<rect x="40.4072" y="132.767" width="33.2113" height="12.1164" fill="#1E1E1E"/>
<rect x="40.4072" y="118.448" width="33.2113" height="12.1164" fill="#FFC776"/>
<rect y="75.4897" width="33.2113" height="12.1164" fill="#1E1E1E"/>
<rect y="89.8091" width="33.2113" height="12.1164" fill="#FFC776"/>
<rect y="104.128" width="33.2113" height="12.1164" fill="#1E1E1E"/>
<rect y="118.448" width="33.2113" height="12.1164" fill="#FFC776"/>
<rect y="132.767" width="33.2113" height="12.1164" fill="#FFC776"/>
<path d="M144.499 83.8074L143.227 80.2113C143.151 80.0223 143.07 79.8009 142.984 79.5472C142.903 79.2934 142.825 79.018 142.749 78.721C142.674 79.0234 142.593 79.3042 142.506 79.5634C142.425 79.8171 142.347 80.0385 142.271 80.2275L141.008 83.8074H144.499ZM148.581 88.27H146.693C146.483 88.27 146.31 88.2214 146.175 88.1242C146.046 88.0216 145.948 87.8921 145.884 87.7355L145.09 85.492H140.408L139.615 87.7355C139.561 87.8705 139.466 87.9946 139.331 88.108C139.196 88.216 139.026 88.27 138.821 88.27H136.918L141.51 76.5181H143.996L148.581 88.27ZM155.022 82.2847H159.056V87.1361C158.457 87.5735 157.817 87.8948 157.136 88.0999C156.461 88.2997 155.746 88.3996 154.99 88.3996C154.024 88.3996 153.149 88.2511 152.366 87.9542C151.583 87.6518 150.913 87.2333 150.357 86.6988C149.801 86.1642 149.372 85.5298 149.07 84.7955C148.767 84.0611 148.616 83.2593 148.616 82.39C148.616 81.5099 148.759 80.7027 149.045 79.9683C149.337 79.234 149.75 78.6023 150.284 78.0731C150.819 77.544 151.464 77.1309 152.22 76.8339C152.981 76.537 153.832 76.3885 154.771 76.3885C155.257 76.3885 155.711 76.429 156.132 76.51C156.553 76.5856 156.942 76.6935 157.298 76.8339C157.655 76.9689 157.981 77.1309 158.278 77.3199C158.575 77.5089 158.845 77.7167 159.088 77.9435L158.384 79.0288C158.276 79.2016 158.135 79.3069 157.962 79.3447C157.79 79.3825 157.601 79.3393 157.396 79.2151C157.201 79.0963 157.009 78.991 156.82 78.8992C156.637 78.802 156.44 78.7183 156.229 78.6482C156.019 78.578 155.789 78.524 155.541 78.4862C155.292 78.4484 155.006 78.4295 154.682 78.4295C154.137 78.4295 153.643 78.524 153.2 78.7129C152.757 78.9019 152.379 79.1692 152.066 79.5148C151.758 79.8603 151.521 80.2761 151.354 80.762C151.186 81.248 151.102 81.7906 151.102 82.39C151.102 83.0379 151.194 83.6184 151.378 84.1313C151.561 84.6389 151.821 85.0681 152.155 85.4191C152.49 85.7701 152.89 86.0373 153.354 86.2209C153.824 86.4045 154.345 86.4963 154.917 86.4963C155.306 86.4963 155.652 86.4585 155.954 86.3829C156.262 86.3019 156.561 86.1939 156.853 86.0589V84.0827H155.525C155.368 84.0827 155.244 84.0422 155.152 83.9612C155.066 83.8748 155.022 83.7669 155.022 83.6373V82.2847ZM163.488 88.27H161.042V76.5181H163.488V88.27ZM172.919 86.2938V88.27H165.946V76.5181H168.376V86.2938H172.919ZM176.855 78.4214V81.4424H180.775V83.2809H176.855V86.3667H181.893V88.27H174.409V76.5181H181.893V78.4214H176.855Z" fill="#1E1E1E"/>
</svg>
