<svg width="270" height="130" viewBox="0 0 270 130" fill="none" xmlns="http://www.w3.org/2000/svg">
<g id="agile-schema">
<path id="Ellipse 6" d="M164.754 15.1167C164.754 21.6994 159.389 27.0473 152.756 27.0473C146.124 27.0473 140.759 21.6994 140.759 15.1167C140.759 8.53404 146.124 3.18611 152.756 3.18611C159.389 3.18611 164.754 8.53404 164.754 15.1167Z" stroke="#5000CA" stroke-width="3.21047"/>
<path id="Ellipse 5" d="M175.848 67.8065C175.848 92.6546 155.598 112.831 130.578 112.831C105.557 112.831 85.3072 92.6546 85.3072 67.8065C85.3072 42.9584 105.557 22.7821 130.578 22.7821C155.598 22.7821 175.848 42.9584 175.848 67.8065Z" stroke="#E4E7EC" stroke-width="9.09634"/>
<g id="ic_move_to_inbox_black_24px">
<path id="Vector" d="M267.056 98.8302H246.438C244.804 98.8302 243.524 100.206 243.524 101.887L243.509 123.283C243.509 124.964 244.804 126.34 246.438 126.34H267.056C268.675 126.34 270 124.964 270 123.283V101.887C270 100.206 268.675 98.8302 267.056 98.8302ZM267.056 117.17H261.17C261.17 119.707 259.183 121.755 256.754 121.755C254.326 121.755 252.339 119.707 252.339 117.17H246.438V101.887H267.056V117.17ZM262.641 109.528H259.698V104.943H253.811V109.528H250.868L256.754 115.642L262.641 109.528Z" fill="#E4E7EC"/>
</g>
<path id="Polygon" d="M175.16 56.3229L188.487 74.8994H161.833L175.16 56.3229Z" fill="#E4E7EC"/>
<path id="Polygon_2" d="M147.295 4.1839L144.679 11.5012L139.489 4.25443L147.295 4.1839Z" fill="#5000CA"/>
<path id="Polygon_3" d="M164.237 19.8651L160.39 12.6825L169.694 13.8019L164.237 19.8651Z" fill="#5000CA"/>
<path id="Polygon_4" d="M231.283 113.066L212.613 126.326V99.8055L231.283 113.066Z" fill="#E4E7EC"/>
<path id="Polygon_5" d="M85.9956 81.0917L72.6686 62.5151H99.3226L85.9956 81.0917Z" fill="#E4E7EC"/>
<line id="Line 5" x1="130.804" y1="112.831" x2="221.326" y2="112.831" stroke="#E4E7EC" stroke-width="9.09634"/>
<path id="Polygon_6" d="M95.0479 113.066L85.5432 119.696V106.436L95.0479 113.066Z" fill="#E4E7EC"/>
<line id="Line 5_2" x1="66.9867" y1="113.06" x2="90.5223" y2="113.06" stroke="#E4E7EC" stroke-width="5.35079"/>
<rect id="Rectangle 15" y="50.0181" width="27.1565" height="9.90748" fill="#E4E7EC"/>
<rect id="Rectangle 15_2" x="33.3081" y="108.83" width="26.6214" height="9.3724" fill="#5000CA" stroke="#5000CA" stroke-width="0.535079"/>
<rect id="Rectangle 15_3" x="33.0406" y="96.8536" width="27.1565" height="9.90748" fill="#E4E7EC"/>
<rect id="Rectangle 15_4" x="0.26754" y="61.9946" width="26.6214" height="9.3724" fill="#5000CA" stroke="#5000CA" stroke-width="0.535079"/>
<rect id="Rectangle 15_5" y="73.4358" width="27.1565" height="9.90748" fill="#E4E7EC"/>
<rect id="Rectangle 15_6" x="0.26754" y="85.4122" width="26.6214" height="9.3724" fill="#5000CA" stroke="#5000CA" stroke-width="0.535079"/>
<rect id="Rectangle 15_7" y="96.8536" width="27.1565" height="9.90748" fill="#E4E7EC"/>
<rect id="Rectangle 15_8" y="108.562" width="27.1565" height="9.90748" fill="#E4E7EC"/>
<path id="AGILE" d="M118.155 68.1015L117.115 65.161C117.053 65.0065 116.987 64.8255 116.917 64.618C116.85 64.4105 116.786 64.1853 116.724 63.9425C116.663 64.1897 116.596 64.4193 116.526 64.6312C116.46 64.8387 116.396 65.0198 116.334 65.1743L115.301 68.1015H118.155ZM121.493 71.7506H119.95C119.778 71.7506 119.636 71.7108 119.526 71.6314C119.42 71.5475 119.34 71.4415 119.287 71.3135L118.638 69.479H114.811L114.162 71.3135C114.117 71.4239 114.04 71.5254 113.93 71.6181C113.819 71.7064 113.68 71.7506 113.512 71.7506H111.956L115.711 62.1411H117.744L121.493 71.7506ZM126.76 66.8564H130.058V70.8234C129.568 71.181 129.045 71.4437 128.489 71.6115C127.937 71.7749 127.352 71.8565 126.734 71.8565C125.943 71.8565 125.228 71.7351 124.588 71.4923C123.948 71.245 123.4 70.9029 122.946 70.4658C122.491 70.0287 122.14 69.5099 121.893 68.9095C121.645 68.309 121.522 67.6534 121.522 66.9425C121.522 66.2229 121.639 65.5628 121.873 64.9624C122.111 64.3619 122.449 63.8453 122.886 63.4127C123.323 62.98 123.851 62.6422 124.469 62.3994C125.091 62.1566 125.787 62.0352 126.555 62.0352C126.952 62.0352 127.323 62.0683 127.668 62.1345C128.012 62.1963 128.33 62.2846 128.621 62.3994C128.913 62.5098 129.18 62.6422 129.423 62.7968C129.665 62.9513 129.886 63.1213 130.085 63.3067L129.509 64.1941C129.42 64.3354 129.306 64.4215 129.164 64.4524C129.023 64.4833 128.868 64.448 128.701 64.3465C128.542 64.2493 128.385 64.1632 128.23 64.0882C128.08 64.0087 127.919 63.9403 127.747 63.8829C127.575 63.8255 127.387 63.7813 127.184 63.7504C126.981 63.7195 126.747 63.7041 126.482 63.7041C126.036 63.7041 125.632 63.7813 125.27 63.9359C124.908 64.0904 124.599 64.3089 124.343 64.5915C124.091 64.8741 123.897 65.214 123.76 65.6114C123.623 66.0087 123.555 66.4525 123.555 66.9425C123.555 67.4723 123.63 67.947 123.78 68.3664C123.93 68.7814 124.142 69.1324 124.416 69.4194C124.69 69.7064 125.016 69.9249 125.396 70.075C125.78 70.2252 126.206 70.3002 126.674 70.3002C126.992 70.3002 127.275 70.2693 127.522 70.2075C127.774 70.1413 128.019 70.053 128.257 69.9426V68.3267H127.171C127.043 68.3267 126.941 68.2936 126.866 68.2273C126.796 68.1567 126.76 68.0684 126.76 67.9624V66.8564ZM133.682 71.7506H131.682V62.1411H133.682V71.7506ZM141.394 70.1347V71.7506H135.692V62.1411H137.679V70.1347H141.394ZM144.612 63.6974V66.1677H147.818V67.671H144.612V70.1943H148.732V71.7506H142.612V62.1411H148.732V63.6974H144.612Z" fill="#5000CA"/>
</g>
</svg>
