<svg width="139" height="145" viewBox="0 0 139 145" fill="none" xmlns="http://www.w3.org/2000/svg">
<path d="M127.417 0.357422H11.5833C5.19628 0.357422 0 5.73654 0 12.3483V101.081C0 107.693 5.19628 113.072 11.5833 113.072H49.718L42.5108 129.859H18.5333C17.2522 129.859 16.2167 130.934 16.2167 132.257C16.2167 138.869 21.4129 144.248 27.8 144.248H111.2C117.587 144.248 122.783 138.869 122.783 132.257C122.783 130.934 121.748 129.859 120.467 129.859H96.4892L89.282 113.072H127.417C133.804 113.072 139 107.693 139 101.081V12.3483C139 5.73654 133.804 0.357422 127.417 0.357422ZM11.5833 5.15378H127.417C131.248 5.15378 134.367 8.38174 134.367 12.3483V96.2847H129.733V12.3483C129.733 11.0245 128.698 9.95015 127.417 9.95015H11.5833C10.3022 9.95015 9.26667 11.0245 9.26667 12.3483V96.2847H4.63333V12.3483C4.63333 8.38174 7.75157 5.15378 11.5833 5.15378ZM71.8167 81.8956C71.8167 83.217 70.7788 84.2938 69.5 84.2938C68.2212 84.2938 67.1833 83.217 67.1833 81.8956C67.1833 80.5742 68.2212 79.4974 69.5 79.4974C70.7788 79.4974 71.8167 80.5742 71.8167 81.8956ZM67.1833 75.1423C64.4937 76.1351 62.55 78.7731 62.55 81.8956C62.55 85.8622 65.6682 89.0901 69.5 89.0901C73.3318 89.0901 76.45 85.8622 76.45 81.8956C76.45 78.7731 74.5063 76.1351 71.8167 75.1423V57.3862L83.1591 84.2218L77.3373 96.2847H61.665L55.8386 84.2266L67.1833 57.3862V75.1423ZM87.7901 85.361C88.0982 84.7254 88.1167 83.9796 87.8387 83.3273L73.1488 48.5729C87.2804 50.3499 98.4027 62.2833 99.4985 77.0992H97.3C96.0189 77.0992 94.9833 78.1736 94.9833 79.4974V89.0901C94.9833 90.4139 96.0189 91.4883 97.3 91.4883H106.567C107.848 91.4883 108.883 90.4139 108.883 89.0901V79.4974C108.883 78.1736 107.848 77.0992 106.567 77.0992H104.132C103.342 64.7846 96.561 54.1582 86.7615 48.321H102.36C103.319 51.1053 105.867 53.1174 108.883 53.1174C112.715 53.1174 115.833 49.8895 115.833 45.9229C115.833 41.9563 112.715 38.7283 108.883 38.7283C105.867 38.7283 103.319 40.7404 102.36 43.5247H36.6404C35.6813 40.7404 33.133 38.7283 30.1167 38.7283C26.2849 38.7283 23.1667 41.9563 23.1667 45.9229C23.1667 49.8895 26.2849 53.1174 30.1167 53.1174C33.133 53.1174 35.6813 51.1053 36.6404 48.321H52.2385C42.439 54.1582 35.6581 64.7846 34.8681 77.0992H32.4333C31.1522 77.0992 30.1167 78.1736 30.1167 79.4974V89.0901C30.1167 90.4139 31.1522 91.4883 32.4333 91.4883H41.7C42.9811 91.4883 44.0167 90.4139 44.0167 89.0901V79.4974C44.0167 78.1736 42.9811 77.0992 41.7 77.0992H39.5015C40.5996 62.2857 51.7219 50.3523 65.8512 48.5729L51.1613 83.3321C50.8856 83.9844 50.9041 84.7302 51.2099 85.3657L56.485 96.2847H13.9V33.932H125.1V96.2847H82.515L87.7901 85.361ZM99.6167 81.8956H104.25V86.6919H99.6167V81.8956ZM106.567 45.9229C106.567 44.6015 107.605 43.5247 108.883 43.5247C110.162 43.5247 111.2 44.6015 111.2 45.9229C111.2 47.2443 110.162 48.321 108.883 48.321C107.605 48.321 106.567 47.2443 106.567 45.9229ZM32.4333 45.9229C32.4333 47.2443 31.3955 48.321 30.1167 48.321C28.8379 48.321 27.8 47.2443 27.8 45.9229C27.8 44.6015 28.8379 43.5247 30.1167 43.5247C31.3955 43.5247 32.4333 44.6015 32.4333 45.9229ZM39.3833 81.8956V86.6919H34.75V81.8956H39.3833ZM125.1 29.1356H13.9V14.7465H125.1V29.1356ZM111.2 139.452H27.8C24.7791 139.452 22.2029 137.447 21.2461 134.656H117.754C116.797 137.447 114.221 139.452 111.2 139.452ZM91.418 129.859H47.582L54.7868 113.072H84.2108L91.418 129.859ZM127.417 108.276H11.5833C7.75157 108.276 4.63333 105.048 4.63333 101.081H11.5833H127.417H134.367C134.367 105.048 131.248 108.276 127.417 108.276Z" fill="#5000CA"/>
<path d="M23.1666 19.543H18.5332V24.3391H23.1666V19.543Z" fill="#5000CA"/>
<path d="M32.4332 19.543H27.7998V24.3391H32.4332V19.543Z" fill="#5000CA"/>
<path d="M41.6998 19.543H37.0664V24.3391H41.6998V19.543Z" fill="#5000CA"/>
<path d="M120.467 19.543H69.5V24.3391H120.467V19.543Z" fill="#5000CA"/>
</svg>
