<svg width="113" height="117" viewBox="0 0 113 117" fill="none" xmlns="http://www.w3.org/2000/svg">
<path d="M103.583 0H9.41667C4.22432 0 0 4.37295 0 9.748V81.8832C0 87.2583 4.22432 91.6312 9.41667 91.6312H40.4182L34.5592 105.278H15.0667C14.0252 105.278 13.1833 106.152 13.1833 107.228C13.1833 112.603 17.4077 116.976 22.6 116.976H90.4C95.5924 116.976 99.8167 112.603 99.8167 107.228C99.8167 106.152 98.9748 105.278 97.9333 105.278H78.4408L72.5818 91.6312H103.583C108.776 91.6312 113 87.2583 113 81.8832V9.748C113 4.37295 108.776 0 103.583 0ZM9.41667 3.8992H103.583C106.698 3.8992 109.233 6.52336 109.233 9.748V77.984H105.467V9.748C105.467 8.67182 104.625 7.7984 103.583 7.7984H9.41667C8.37518 7.7984 7.53333 8.67182 7.53333 9.748V77.984H3.76667V9.748C3.76667 6.52336 6.30163 3.8992 9.41667 3.8992ZM58.3833 66.2864C58.3833 67.3606 57.5396 68.236 56.5 68.236C55.4604 68.236 54.6167 67.3606 54.6167 66.2864C54.6167 65.2122 55.4604 64.3368 56.5 64.3368C57.5396 64.3368 58.3833 65.2122 58.3833 66.2864ZM54.6167 60.7963C52.4301 61.6035 50.85 63.748 50.85 66.2864C50.85 69.5111 53.385 72.1352 56.5 72.1352C59.615 72.1352 62.15 69.5111 62.15 66.2864C62.15 63.748 60.5699 61.6035 58.3833 60.7963V46.3615L67.6041 68.1775L62.8713 77.984H50.1306L45.394 68.1814L54.6167 46.3615V60.7963ZM71.3689 69.1036C71.6194 68.587 71.6345 67.9806 71.4085 67.4503L59.4663 39.1967C70.9546 40.6414 79.9965 50.3426 80.8873 62.3872H79.1C78.0585 62.3872 77.2167 63.2606 77.2167 64.3368V72.1352C77.2167 73.2114 78.0585 74.0848 79.1 74.0848H86.6333C87.6748 74.0848 88.5167 73.2114 88.5167 72.1352V64.3368C88.5167 63.2606 87.6748 62.3872 86.6333 62.3872H84.654C84.0117 52.376 78.4992 43.7373 70.5327 38.992H83.2132C83.9929 41.2555 86.0646 42.8912 88.5167 42.8912C91.6317 42.8912 94.1667 40.2671 94.1667 37.0424C94.1667 33.8178 91.6317 31.1936 88.5167 31.1936C86.0646 31.1936 83.9929 32.8293 83.2132 35.0928H29.7868C29.0071 32.8293 26.9354 31.1936 24.4833 31.1936C21.3683 31.1936 18.8333 33.8178 18.8333 37.0424C18.8333 40.2671 21.3683 42.8912 24.4833 42.8912C26.9354 42.8912 29.0071 41.2555 29.7868 38.992H42.4673C34.5008 43.7373 28.9883 52.376 28.3461 62.3872H26.3667C25.3252 62.3872 24.4833 63.2606 24.4833 64.3368V72.1352C24.4833 73.2114 25.3252 74.0848 26.3667 74.0848H33.9C34.9415 74.0848 35.7833 73.2114 35.7833 72.1352V64.3368C35.7833 63.2606 34.9415 62.3872 33.9 62.3872H32.1127C33.0054 50.3445 42.0473 40.6433 53.5338 39.1967L41.5915 67.4542C41.3674 67.9845 41.3825 68.5908 41.6311 69.1075L45.9194 77.984H11.3V27.2944H101.7V77.984H67.0806L71.3689 69.1036ZM80.9833 66.2864H84.75V70.1856H80.9833V66.2864ZM86.6333 37.0424C86.6333 35.9682 87.4771 35.0928 88.5167 35.0928C89.5563 35.0928 90.4 35.9682 90.4 37.0424C90.4 38.1166 89.5563 38.992 88.5167 38.992C87.4771 38.992 86.6333 38.1166 86.6333 37.0424ZM26.3667 37.0424C26.3667 38.1166 25.5229 38.992 24.4833 38.992C23.4437 38.992 22.6 38.1166 22.6 37.0424C22.6 35.9682 23.4437 35.0928 24.4833 35.0928C25.5229 35.0928 26.3667 35.9682 26.3667 37.0424ZM32.0167 66.2864V70.1856H28.25V66.2864H32.0167ZM101.7 23.3952H11.3V11.6976H101.7V23.3952ZM90.4 113.077H22.6C20.1441 113.077 18.0499 111.447 17.272 109.178H95.728C94.9501 111.447 92.8559 113.077 90.4 113.077ZM74.3182 105.278H38.6818L44.539 91.6312H68.4592L74.3182 105.278ZM103.583 87.732H9.41667C6.30163 87.732 3.76667 85.1079 3.76667 81.8832H9.41667H103.583H109.233C109.233 85.1079 106.698 87.732 103.583 87.732Z" fill="#262626"/>
<path d="M18.8336 15.5972H15.0669V19.4962H18.8336V15.5972Z" fill="#262626"/>
<path d="M26.3668 15.5972H22.6001V19.4962H26.3668V15.5972Z" fill="#262626"/>
<path d="M33.8995 15.5972H30.1328V19.4962H33.8995V15.5972Z" fill="#262626"/>
<path d="M97.9333 15.5972H56.5V19.4962H97.9333V15.5972Z" fill="#262626"/>
</svg>
