<svg width="214" height="223" viewBox="0 0 214 223" fill="none" xmlns="http://www.w3.org/2000/svg">
<path d="M56.8972 81.4667C58.3042 81.4667 59.4449 80.2859 59.4449 78.8294C59.4449 77.3729 58.3042 76.1921 56.8972 76.1921C55.4902 76.1921 54.3496 77.3729 54.3496 78.8294C54.3496 80.2859 55.4902 81.4667 56.8972 81.4667Z" fill="#5000CA"/>
<path d="M92.5632 81.4667C93.9703 81.4667 95.1109 80.2859 95.1109 78.8294C95.1109 77.3729 93.9703 76.1921 92.5632 76.1921C91.1562 76.1921 90.0156 77.3729 90.0156 78.8294C90.0156 80.2859 91.1562 81.4667 92.5632 81.4667Z" fill="#5000CA"/>
<path d="M133.283 142.294L96.8095 131.821V119.15C103.387 113.761 108.089 106.06 109.734 97.2357C117.68 96.6801 123.984 89.8285 123.984 81.4667V63.5615C125.956 62.8336 127.381 60.8996 127.381 58.6105V55.0941C127.381 52.7012 125.824 50.6987 123.711 50.0552C121.712 28.9589 107.418 11.444 87.6194 5.90577C86.315 2.78502 83.3156 0.59082 79.8254 0.59082H69.6349C66.1447 0.59082 63.1453 2.78502 61.8409 5.90577C42.0425 11.444 27.747 28.9589 25.7496 50.0552C23.6368 50.6987 22.0794 52.7012 22.0794 55.0941V58.6105C22.0794 60.8996 23.5043 62.8336 25.4762 63.5615V81.4667C25.4762 89.7776 31.7009 96.5975 39.5764 97.2287C41.0489 106.355 45.847 114.311 52.6508 119.728V131.821L16.1774 142.294C6.65268 145.028 0 154.086 0 164.319V222.12H74.7302H149.46V164.319C149.46 154.086 142.808 145.028 133.283 142.294ZM118.889 218.604H87.6347L81.5985 168.137L87.0963 161.024L94.1702 167.016L104.77 137.758L128.358 144.531L122.653 159.292C120.156 165.757 118.889 172.568 118.889 179.532V218.604ZM79.0085 165.859H70.4519L64.9932 158.796L74.7302 150.549L84.4672 158.796L79.0085 165.859ZM62.364 161.022L67.8618 168.136L61.8256 218.604H30.5714V179.532C30.5714 172.568 29.3044 165.757 26.8061 159.29L21.1011 144.529L44.6886 137.756L55.2884 167.014L62.364 161.022ZM101.484 136.812L92.6552 161.187L77.5224 148.37L95.4389 135.077L101.484 136.812ZM110.229 93.6596C110.329 92.5379 110.397 91.4056 110.397 90.2575V69.3001C116.149 70.1581 120.587 75.2797 120.587 81.4667C120.587 87.7152 116.063 92.879 110.229 93.6596ZM110.397 65.7469V63.885H120.587V71.5436C118.118 68.3806 114.502 66.2198 110.397 65.7469ZM61.1429 9.77902V46.3033H64.5397V9.38167C64.5397 6.47366 66.8258 4.10716 69.6349 4.10716H79.8254C82.6346 4.10716 84.9206 6.47366 84.9206 9.38167V46.3033H88.3175V9.77902C105.745 15.3489 118.266 31.0072 120.271 49.8196H29.1889C31.1947 31.0072 43.7154 15.3489 61.1429 9.77902ZM25.4762 55.0941C25.4762 54.1254 26.2388 53.3359 27.1746 53.3359H122.286C123.222 53.3359 123.984 54.1254 123.984 55.0941V58.6105C123.984 59.5792 123.222 60.3686 122.286 60.3686H27.1746C26.2388 60.3686 25.4762 59.5792 25.4762 58.6105V55.0941ZM28.873 63.885H40.1335C39.9467 64.4828 39.8006 65.0911 39.663 65.7012C35.3134 66.0247 31.4614 68.2277 28.8747 71.5436V63.885H28.873ZM28.873 81.4667C28.873 75.2498 33.3534 70.1089 39.1433 69.2878C39.106 69.8294 39.0635 70.3691 39.0635 70.9177V91.3124C39.0635 92.1019 39.1297 92.8755 39.1773 93.6526C33.3704 92.8456 28.873 87.6959 28.873 81.4667ZM42.4603 91.3124V70.9177C42.4603 68.4826 42.9121 66.1249 43.7579 63.885H107V90.2575C107 108.678 92.4497 123.663 74.5637 123.663H73.7111C56.479 123.663 42.4603 109.151 42.4603 91.3124ZM73.7111 127.179H74.5637C81.4831 127.179 87.9285 125.113 93.4127 121.599V132.255L74.7302 146.115L56.0476 132.255V122.112C61.2278 125.308 67.2554 127.179 73.7111 127.179ZM54.0214 135.077L71.938 148.37L56.8051 161.187L47.9768 136.812L54.0214 135.077ZM3.39683 164.319C3.39683 155.66 9.02537 147.998 17.0843 145.682L17.8079 145.475L23.6504 160.597C25.9891 166.647 27.1746 173.016 27.1746 179.532V218.604H3.39683V164.319ZM65.2479 218.604L71.1363 169.375H78.324L84.2124 218.604H74.7302H65.2479ZM146.063 218.604H122.286V179.532C122.286 173.016 123.471 166.647 125.808 160.595L131.651 145.473L132.374 145.68C140.435 147.998 146.063 155.66 146.063 164.319V218.604Z" fill="#5000CA"/>
<path d="M39.1258 43.3213C42.2255 33.2663 49.2824 24.857 58.4844 20.2506L57.0051 17.0841C46.9674 22.109 39.2719 31.2831 35.8887 42.2506L39.1258 43.3213Z" fill="#5000CA"/>
<path d="M66.2382 72.6759V90.2575C66.2382 95.1048 70.0477 99.0483 74.7303 99.0483C79.4128 99.0483 83.2223 95.1048 83.2223 90.2575V72.6759C83.2223 71.7071 83.9849 70.9177 84.9207 70.9177H101.905V67.4014H84.9207C82.1116 67.4014 79.8255 69.7679 79.8255 72.6759V90.2575C79.8255 93.1655 77.5394 95.532 74.7303 95.532C71.9211 95.532 69.635 93.1655 69.635 90.2575V72.6759C69.635 69.7679 67.349 67.4014 64.5398 67.4014H47.5557V70.9177H64.5398C65.4756 70.9177 66.2382 71.7071 66.2382 72.6759Z" fill="#5000CA"/>
<path d="M91.2899 105.343L88.7406 103.018C85.1842 107.199 80.077 109.597 74.7304 109.597C69.3838 109.597 64.2767 107.199 60.7185 103.018L58.1709 105.343C62.3728 110.281 68.4072 113.114 74.7304 113.114C81.0536 113.114 87.0881 110.281 91.2899 105.343Z" fill="#5000CA"/>
<path d="M81.5238 42.7869H78.127V46.3022H81.5238V42.7869Z" fill="#5000CA"/>
<path d="M81.5238 35.7542H78.127V39.2695H81.5238V35.7542Z" fill="#5000CA"/>
<path d="M81.5238 28.7216H78.127V32.2368H81.5238V28.7216Z" fill="#5000CA"/>
<path d="M71.3333 42.7869H67.9365V46.3022H71.3333V42.7869Z" fill="#5000CA"/>
<path d="M71.3333 35.7542H67.9365V39.2695H71.3333V35.7542Z" fill="#5000CA"/>
<path d="M71.3333 28.7216H67.9365V32.2368H71.3333V28.7216Z" fill="#5000CA"/>
<path d="M112.095 169.375C112.095 165.497 109.048 162.343 105.302 162.343C101.555 162.343 98.5079 165.497 98.5079 169.375V179.924H88.3174V190.473H115.492V179.924H112.095V169.375ZM105.302 165.859C107.175 165.859 108.698 167.436 108.698 169.375V172.892H101.905V169.375C101.905 167.436 103.428 165.859 105.302 165.859ZM101.905 176.408H108.698V179.924H101.905V176.408ZM112.095 186.957H91.7142V183.441H112.095V186.957Z" fill="#5000CA"/>
<path d="M205.507 33.996H139.269C134.587 33.996 130.777 37.9396 130.777 42.7868V128.937C130.777 133.785 134.587 137.728 139.269 137.728H205.507C210.19 137.728 214 133.785 214 128.937V42.7868C214 37.9396 210.19 33.996 205.507 33.996ZM210.603 128.937C210.603 131.845 208.317 134.212 205.507 134.212H139.269C136.46 134.212 134.174 131.845 134.174 128.937V42.7868C134.174 39.8788 136.46 37.5123 139.269 37.5123H205.507C208.317 37.5123 210.603 39.8788 210.603 42.7868V128.937Z" fill="#5000CA"/>
<path d="M140.968 44.545H137.571V48.0605H140.968V44.545Z" fill="#5000CA"/>
<path d="M200.413 44.545H144.365V48.0605H200.413V44.545Z" fill="#5000CA"/>
<path d="M144.365 41.0287H140.968V44.5441H144.365V41.0287Z" fill="#5000CA"/>
<path d="M144.365 48.0614H140.968V123.663H144.365V48.0614Z" fill="#5000CA"/>
<path d="M207.206 44.545H203.81V48.0605H207.206V44.545Z" fill="#5000CA"/>
<path d="M203.81 41.0287H200.413V44.5441H203.81V41.0287Z" fill="#5000CA"/>
<path d="M203.81 48.0614H200.413V123.663H203.81V48.0614Z" fill="#5000CA"/>
<path d="M140.968 123.663H137.571V127.178H140.968V123.663Z" fill="#5000CA"/>
<path d="M200.413 123.663H144.365V127.178H200.413V123.663Z" fill="#5000CA"/>
<path d="M144.365 127.179H140.968V130.694H144.365V127.179Z" fill="#5000CA"/>
<path d="M207.206 123.663H203.81V127.178H207.206V123.663Z" fill="#5000CA"/>
<path d="M203.81 127.179H200.413V130.694H203.81V127.179Z" fill="#5000CA"/>
<path d="M174.936 83.2249H176.735C177.521 90.5459 183.15 96.3725 190.222 97.1865V99.0484H193.619V83.2249H197.016V55.0941H147.762V81.4667V83.2249V111.356H174.936V83.2249ZM190.222 93.6332C185.027 92.8579 180.915 88.6031 180.167 83.2249H190.222V93.6332ZM193.619 79.7085H174.936V58.6105H193.619V79.7085ZM151.159 58.6105H171.539V79.7085H151.159V58.6105ZM151.159 107.839V83.2249H171.539V107.839H151.159Z" fill="#5000CA"/>
<path d="M197.016 109.598H183.429V113.113H197.016V109.598Z" fill="#5000CA"/>
<path d="M197.016 116.63H193.619V120.146H197.016V116.63Z" fill="#5000CA"/>
<path d="M190.222 116.63H183.429V120.146H190.222V116.63Z" fill="#5000CA"/>
</svg>
