<svg width="128" height="132" viewBox="0 0 128 132" fill="none" xmlns="http://www.w3.org/2000/svg">
<path d="M33.9023 48.1907C34.7407 48.1907 35.4203 47.4872 35.4203 46.6193C35.4203 45.7514 34.7407 45.0479 33.9023 45.0479C33.0639 45.0479 32.3843 45.7514 32.3843 46.6193C32.3843 47.4872 33.0639 48.1907 33.9023 48.1907Z" fill="#262626"/>
<path d="M55.1543 48.1907C55.9926 48.1907 56.6723 47.4872 56.6723 46.6193C56.6723 45.7514 55.9926 45.0479 55.1543 45.0479C54.3159 45.0479 53.6362 45.7514 53.6362 46.6193C53.6362 47.4872 54.3159 48.1907 55.1543 48.1907Z" fill="#262626"/>
<path d="M79.4176 84.435L57.6847 78.1943V70.6441C61.6042 67.4331 64.4054 62.8446 65.3861 57.5866C70.1203 57.2555 73.8769 53.173 73.8769 48.1905V37.5215C75.0518 37.0878 75.9009 35.9354 75.9009 34.5714V32.4762C75.9009 31.0504 74.9729 29.8571 73.7139 29.4737C72.5228 16.9033 64.0057 6.46695 52.2087 3.16695C51.4314 1.30743 49.6442 0 47.5645 0H41.4925C39.4128 0 37.6256 1.30743 36.8484 3.16695C25.0513 6.46695 16.5332 16.9033 15.3431 29.4737C14.0842 29.8571 13.1562 31.0504 13.1562 32.4762V34.5714C13.1562 35.9354 14.0052 37.0878 15.1802 37.5215V48.1905C15.1802 53.1426 18.8892 57.2063 23.5819 57.5824C24.4593 63.0206 27.3182 67.7611 31.3724 70.9888V78.1943L9.63941 84.435C3.96405 86.064 0 91.4613 0 97.5585V132H44.5285H89.057V97.5585C89.057 91.4613 85.093 86.064 79.4176 84.435ZM70.8408 129.905H52.2178L48.6211 99.8339L51.897 95.5952L56.112 99.1655L62.428 81.7321L76.4828 85.7675L73.0834 94.5633C71.5958 98.4154 70.8408 102.474 70.8408 106.624V129.905ZM47.0778 98.4762H41.9793L38.7266 94.2679L44.5285 89.3535L50.3304 94.2679L47.0778 98.4762ZM37.1601 95.5942L40.4359 99.8329L36.8392 129.905H18.2162V106.624C18.2162 102.474 17.4613 98.4154 15.9726 94.5623L12.5732 85.7665L26.628 81.731L32.944 99.1645L37.1601 95.5942ZM60.4697 81.1685L55.2093 95.6927L46.1923 88.0555L56.868 80.1345L60.4697 81.1685ZM65.6806 55.4557C65.7403 54.7873 65.7808 54.1127 65.7808 53.4286V40.941C69.2084 41.4522 71.8528 44.5039 71.8528 48.1905C71.8528 51.9137 69.1568 54.9906 65.6806 55.4557ZM65.7808 38.8237V37.7143H71.8528V42.2777C70.3814 40.393 68.2268 39.1055 65.7808 38.8237ZM36.4324 5.47486V27.2381H38.4564V5.2381C38.4564 3.50533 39.8186 2.09524 41.4925 2.09524H47.5645C49.2384 2.09524 50.6006 3.50533 50.6006 5.2381V27.2381H52.6246V5.47486C63.0089 8.79371 70.4694 18.1238 71.6646 29.3333H17.3924C18.5876 18.1238 26.0482 8.79371 36.4324 5.47486ZM15.1802 32.4762C15.1802 31.899 15.6346 31.4286 16.1922 31.4286H72.8648C73.4225 31.4286 73.8769 31.899 73.8769 32.4762V34.5714C73.8769 35.1487 73.4225 35.619 72.8648 35.619H16.1922C15.6346 35.619 15.1802 35.1487 15.1802 34.5714V32.4762ZM17.2042 37.7143H23.9138C23.8025 38.0705 23.7155 38.433 23.6335 38.7965C21.0417 38.9892 18.7465 40.3019 17.2052 42.2777V37.7143H17.2042ZM17.2042 48.1905C17.2042 44.4861 19.8739 41.4229 23.3238 40.9336C23.3016 41.2563 23.2763 41.5779 23.2763 41.9048V54.0571C23.2763 54.5275 23.3157 54.9885 23.3441 55.4515C19.884 54.9707 17.2042 51.9022 17.2042 48.1905ZM25.3003 54.0571V41.9048C25.3003 40.4538 25.5695 39.049 26.0735 37.7143H63.7567V53.4286C63.7567 64.4045 55.0868 73.3333 44.4293 73.3333H43.9213C33.6534 73.3333 25.3003 64.6863 25.3003 54.0571ZM43.9213 75.4286H44.4293C48.5523 75.4286 52.3929 74.1976 55.6606 72.1034V78.4531L44.5285 86.7114L33.3964 78.4531V72.4093C36.483 74.3139 40.0746 75.4286 43.9213 75.4286ZM32.1891 80.1345L42.8648 88.0555L33.8477 95.6927L28.5873 81.1685L32.1891 80.1345ZM2.02402 97.5585C2.02402 92.399 5.37783 87.8334 10.1798 86.4537L10.6109 86.3301L14.0923 95.3407C15.4858 98.9455 16.1922 102.741 16.1922 106.624V129.905H2.02402V97.5585ZM38.8785 129.905L42.3871 100.571H46.6699L50.1786 129.905H44.5285H38.8785ZM87.033 129.905H72.8648V106.624C72.8648 102.741 73.5712 98.9455 74.9637 95.3396L78.4451 86.329L78.8762 86.4527C83.6792 87.8334 87.033 92.399 87.033 97.5585V129.905Z" fill="#262626"/>
<path d="M23.3137 25.4613C25.1606 19.4699 29.3655 14.4592 34.8486 11.7144L33.9671 9.82764C27.9861 12.8217 23.4007 18.2882 21.3848 24.8233L23.3137 25.4613Z" fill="#262626"/>
<path d="M39.4686 42.9524V53.4286C39.4686 56.3168 41.7385 58.6666 44.5286 58.6666C47.3187 58.6666 49.5887 56.3168 49.5887 53.4286V42.9524C49.5887 42.3752 50.0431 41.9048 50.6007 41.9048H60.7208V39.8096H50.6007C48.9268 39.8096 47.5646 41.2197 47.5646 42.9524V53.4286C47.5646 55.1613 46.2025 56.5714 44.5286 56.5714C42.8547 56.5714 41.4926 55.1613 41.4926 53.4286V42.9524C41.4926 41.2197 40.1304 39.8096 38.4565 39.8096H28.3364V41.9048H38.4565C39.0142 41.9048 39.4686 42.3752 39.4686 42.9524Z" fill="#262626"/>
<path d="M54.3958 62.4172L52.8768 61.0322C50.7577 63.5234 47.7145 64.9524 44.5287 64.9524C41.3429 64.9524 38.2998 63.5234 36.1796 61.0322L34.6616 62.4172C37.1653 65.3599 40.761 67.0476 44.5287 67.0476C48.2965 67.0476 51.8921 65.3599 54.3958 62.4172Z" fill="#262626"/>
<path d="M48.5763 25.1426H46.5522V27.2372H48.5763V25.1426Z" fill="#262626"/>
<path d="M48.5763 20.9521H46.5522V23.0468H48.5763V20.9521Z" fill="#262626"/>
<path d="M48.5763 16.7617H46.5522V18.8563H48.5763V16.7617Z" fill="#262626"/>
<path d="M42.5045 25.1426H40.4805V27.2372H42.5045V25.1426Z" fill="#262626"/>
<path d="M42.5045 20.9521H40.4805V23.0468H42.5045V20.9521Z" fill="#262626"/>
<path d="M42.5045 16.7617H40.4805V18.8563H42.5045V16.7617Z" fill="#262626"/>
<path d="M66.7927 100.571C66.7927 98.2603 64.9771 96.3809 62.7446 96.3809C60.5121 96.3809 58.6966 98.2603 58.6966 100.571V106.857H52.6245V113.143H68.8167V106.857H66.7927V100.571ZM62.7446 98.4761C63.8609 98.4761 64.7686 99.4158 64.7686 100.571V102.667H60.7206V100.571C60.7206 99.4158 61.6284 98.4761 62.7446 98.4761ZM60.7206 104.762H64.7686V106.857H60.7206V104.762ZM66.7927 111.048H54.6485V108.952H66.7927V111.048Z" fill="#262626"/>
<path d="M122.453 19.9048H82.9849C80.1947 19.9048 77.9248 22.2546 77.9248 25.1429V76.4763C77.9248 79.3646 80.1947 81.7144 82.9849 81.7144H122.453C125.243 81.7144 127.513 79.3646 127.513 76.4763V25.1429C127.513 22.2546 125.243 19.9048 122.453 19.9048ZM125.489 76.4763C125.489 78.209 124.127 79.6191 122.453 79.6191H82.9849C81.311 79.6191 79.9488 78.209 79.9488 76.4763V25.1429C79.9488 23.4101 81.311 22 82.9849 22H122.453C124.127 22 125.489 23.4101 125.489 25.1429V76.4763Z" fill="#262626"/>
<path d="M83.9972 26.1904H81.9731V28.2852H83.9972V26.1904Z" fill="#262626"/>
<path d="M119.417 26.1904H86.021V28.2852H119.417V26.1904Z" fill="#262626"/>
<path d="M86.0206 24.0952H83.9966V26.1899H86.0206V24.0952Z" fill="#262626"/>
<path d="M86.0206 28.2856H83.9966V73.3333H86.0206V28.2856Z" fill="#262626"/>
<path d="M123.465 26.1904H121.441V28.2852H123.465V26.1904Z" fill="#262626"/>
<path d="M121.442 24.0952H119.417V26.1899H121.442V24.0952Z" fill="#262626"/>
<path d="M121.442 28.2856H119.417V73.3333H121.442V28.2856Z" fill="#262626"/>
<path d="M83.9972 73.3335H81.9731V75.4282H83.9972V73.3335Z" fill="#262626"/>
<path d="M119.417 73.3335H86.021V75.4282H119.417V73.3335Z" fill="#262626"/>
<path d="M86.0206 75.4287H83.9966V77.5233H86.0206V75.4287Z" fill="#262626"/>
<path d="M123.465 73.3335H121.441V75.4282H123.465V73.3335Z" fill="#262626"/>
<path d="M121.442 75.4287H119.417V77.5233H121.442V75.4287Z" fill="#262626"/>
<path d="M104.237 49.238H105.309C105.777 53.6003 109.131 57.0721 113.345 57.5571V58.6666H115.369V49.238H117.393V32.4761H88.0449V48.1904V49.238V65.9999H104.237V49.238ZM113.345 55.4399C110.249 54.9779 107.799 52.4426 107.354 49.238H113.345V55.4399ZM115.369 47.1427H104.237V34.5713H115.369V47.1427ZM90.0689 34.5713H102.213V47.1427H90.0689V34.5713ZM90.0689 63.9046V49.238H102.213V63.9046H90.0689Z" fill="#262626"/>
<path d="M117.393 64.9526H109.297V67.0473H117.393V64.9526Z" fill="#262626"/>
<path d="M117.394 69.1426H115.37V71.2373H117.394V69.1426Z" fill="#262626"/>
<path d="M113.345 69.1426H109.297V71.2373H113.345V69.1426Z" fill="#262626"/>
</svg>
