<svg width="79" height="28" viewBox="0 0 79 28" fill="none" xmlns="http://www.w3.org/2000/svg">
<path d="M48.0863 2.18033C47.6311 2.19705 47.1962 2.38616 46.8719 2.71422C46.4998 3.0877 46.3083 3.60701 46.3448 4.13467C46.3448 4.83247 46.7133 5.47784 47.3132 5.82598C47.9123 6.17561 48.6515 6.17561 49.2506 5.82598C49.8497 5.47784 50.2198 4.83247 50.2186 4.13467C50.256 3.60701 50.0642 3.0877 49.6924 2.71422C49.3214 2.33928 48.8058 2.14605 48.2821 2.18403C48.2165 2.17932 48.1514 2.17798 48.0863 2.18033ZM40.0841 3.32535L40.0913 18.3783C40.0913 20.5111 39.2432 21.9895 36.7903 21.9895C35.7633 21.9975 34.7455 21.8091 33.7896 21.4354V24.2804C34.9109 24.6657 36.0896 24.853 37.2741 24.8359C41.28 24.8359 42.9894 22.1192 42.9894 18.1829V3.32535H40.0841ZM70.1325 8.10132C65.6134 8.10132 63.3543 11.9707 63.3543 16.5565C63.3543 21.3389 65.5185 25.013 69.8099 25.013C72.2938 25.013 74.2302 23.9085 75.2651 21.761L75.2683 24.6879H78.0454V8.42644H75.2683V11.2867C74.2963 9.17241 72.4876 8.10132 70.1325 8.10132ZM61.6853 8.17812C58.9089 8.17435 57.4198 9.48776 56.5427 11.2867V8.42644H53.8318V24.6989H56.5427V15.0896C56.5427 11.6454 58.707 10.5589 62.2576 10.928V8.19651C62.0608 8.18427 61.8704 8.17836 61.6853 8.17812ZM46.8628 8.43021V24.6912H49.6385V8.43021H46.8628ZM70.8628 10.6881C73.2328 10.6881 75.2651 12.2813 75.2651 15.8921V17.2072C75.2651 20.8165 73.0399 22.4102 70.5552 22.4118C67.6787 22.4118 66.1312 20.4594 66.1164 16.5414C66.1164 12.7685 67.7298 10.6881 70.8628 10.6881Z" fill="#253858"/>
<path d="M26.556 13.2161L14.5973 1.16691L13.4383 0L0.321588 13.2161C-0.107196 13.6493 -0.107196 14.3507 0.321588 14.783L8.54587 23.0693L13.4383 28L26.556 14.783C26.9851 14.3507 26.9851 13.6493 26.556 13.2161ZM13.4383 18.1386L9.33072 14.0002L13.4383 9.86022L17.5468 14.0002L13.4383 18.1386Z" fill="#2684FF"/>
<path d="M13.4383 9.86032C10.7491 7.14954 10.7353 2.75917 13.4097 0.0324707L4.41895 9.0878L9.31257 14.0185L13.4383 9.86032Z" fill="url(#paint0_linear_29_240)"/>
<path d="M17.5584 13.9885L13.4385 18.1387C14.7368 19.4457 15.467 21.2198 15.467 23.0694C15.467 24.9191 14.7368 26.692 13.4385 28.0001L22.4508 18.9192L17.5584 13.9885Z" fill="url(#paint1_linear_29_240)"/>
<defs>
<linearGradient id="paint0_linear_29_240" x1="11.6726" y1="6.71362" x2="6.93268" y2="11.4168" gradientUnits="userSpaceOnUse">
<stop stop-color="#0052CC"/>
<stop offset="1" stop-color="#2684FF"/>
</linearGradient>
<linearGradient id="paint1_linear_29_240" x1="15.2549" y1="21.2405" x2="19.9854" y2="16.5456" gradientUnits="userSpaceOnUse">
<stop stop-color="#0052CC"/>
<stop offset="1" stop-color="#2684FF"/>
</linearGradient>
</defs>
</svg>
