<svg width="93" height="28" viewBox="0 0 93 28" fill="none" xmlns="http://www.w3.org/2000/svg">
<g clip-path="url(#clip0_29_249)">
<path d="M28.1669 12.5347H19.6985L27.0322 8.26933L25.5778 5.73067L18.2433 9.996L22.4765 2.60867L19.957 1.14333L15.7228 8.5288V0H12.8123V8.52973L8.5781 1.14333L6.0576 2.60867L10.2909 9.99413L2.95814 5.73067L1.5029 8.26933L8.83654 12.5347H0.368164V15.4663H8.83562L1.5029 19.7316L2.95722 22.2703L10.2918 18.0049L6.0576 25.3923L8.57718 26.8576L12.8123 19.4712V28H15.7228V19.2883L20.0348 26.8109L22.3978 25.4371L18.0849 17.9125L25.576 22.2693L27.0312 19.7307L19.6985 15.4653H28.166V12.5347H28.1669ZM14.2675 17.9853C13.748 17.9854 13.2335 17.8823 12.7535 17.6821C12.2735 17.4818 11.8373 17.1882 11.4699 16.8181C11.1025 16.448 10.811 16.0086 10.6121 15.525C10.4132 15.0414 10.3108 14.523 10.3108 13.9995C10.3107 13.476 10.413 12.9577 10.6118 12.474C10.8105 11.9904 11.1019 11.5509 11.4692 11.1807C11.8366 10.8105 12.2727 10.5168 12.7526 10.3164C13.2326 10.116 13.7471 10.0129 14.2666 10.0128C15.3159 10.0127 16.3222 10.4325 17.0643 11.18C17.8063 11.9275 18.2232 12.9414 18.2234 13.9986C18.2235 15.0558 17.8068 16.0698 17.0649 16.8175C16.3231 17.5651 15.3168 17.9852 14.2675 17.9853Z" fill="#3D2E7C"/>
<path d="M35.6694 24.2415V3.75854H39.4006V24.2415H35.6694ZM71.4558 10.3217H75.0184V12.0204C75.7761 10.6624 77.5445 9.92601 79.059 9.92601C80.9394 9.92601 82.4539 10.7473 83.1552 12.2453C84.2482 10.5467 85.7081 9.92601 87.532 9.92601C90.0849 9.92601 92.5248 11.4819 92.5248 15.2161V24.2415H88.9067V15.9805C88.9067 14.4807 88.1767 13.3485 86.4649 13.3485C84.8651 13.3485 83.911 14.5945 83.911 16.0944V24.2424H80.2095V15.9805C80.2095 14.4807 79.4517 13.3485 77.7677 13.3485C76.1402 13.3485 75.1861 14.5665 75.1861 16.0944V24.2424H71.4558V10.3217ZM47.8329 24.6447C43.6293 24.6447 40.5854 21.5021 40.5854 17.2816C40.5854 13.1283 43.62 9.91201 47.8329 9.91201C52.0662 9.91201 55.0804 13.1581 55.0804 17.2816C55.0804 21.4723 52.0347 24.6447 47.8329 24.6447ZM47.8329 13.3187C46.7902 13.3202 45.7907 13.7383 45.0537 14.4815C44.3167 15.2246 43.9023 16.232 43.9016 17.2825C43.9023 18.3331 44.3167 19.3405 45.0537 20.0836C45.7907 20.8267 46.7902 21.2449 47.8329 21.2464C48.8754 21.2447 49.8747 20.8264 50.6115 20.0833C51.3483 19.3402 51.7625 18.333 51.7632 17.2825C51.7625 16.2321 51.3483 15.2249 50.6115 14.4818C49.8747 13.7387 48.8754 13.3204 47.8329 13.3187ZM63.0495 24.6447C58.8459 24.6447 55.802 21.5021 55.802 17.2816C55.802 13.1283 58.8366 9.91201 63.0495 9.91201C67.2827 9.91201 70.297 13.1581 70.297 17.2816C70.297 21.4723 67.2494 24.6447 63.0495 24.6447ZM63.0495 13.2711C61.9948 13.2728 60.9839 13.6959 60.2385 14.4475C59.493 15.1992 59.0738 16.2181 59.0728 17.2807C59.0738 18.3433 59.493 19.3622 60.2385 20.1138C60.9839 20.8655 61.9948 21.2885 63.0495 21.2903C64.1041 21.2885 65.115 20.8655 65.8605 20.1138C66.606 19.3622 67.0252 18.3433 67.0261 17.2807C67.0252 16.2181 66.606 15.1992 65.8605 14.4475C65.115 13.6959 64.1041 13.2728 63.0495 13.2711Z" fill="black"/>
</g>
<defs>
<clipPath id="clip0_29_249">
<rect width="92.6316" height="28" fill="white" transform="translate(0.368164)"/>
</clipPath>
</defs>
</svg>
