<svg width="121" height="123" viewBox="0 0 121 123" fill="none" xmlns="http://www.w3.org/2000/svg">
<path d="M60.9149 122.484C59.94 122.484 59.1332 121.691 59.1332 120.703V116.763C59.1332 109.344 56.2378 102.37 50.9895 97.1221C45.7414 91.874 38.7677 88.9784 31.3483 88.9784C23.929 88.9784 16.9556 91.8738 11.7072 97.1221C6.45913 102.37 3.56352 109.344 3.56352 116.763V120.703C3.56352 121.677 2.77023 122.484 1.78176 122.484C0.793291 122.484 0 121.691 0 120.703V116.763C0 108.397 3.25753 100.532 9.17278 94.6026C15.089 88.6863 22.9538 85.4298 31.3334 85.4298C39.713 85.4298 47.5781 88.6873 53.4941 94.6026C59.4103 100.519 62.6668 108.384 62.6668 116.763V120.703C62.6668 121.677 61.8736 122.484 60.8851 122.484H60.9149ZM31.3623 83.0758C19.3356 83.0758 9.54912 73.2903 9.54912 61.2627C9.54912 49.2361 19.3346 39.4496 31.3623 39.4496C43.3889 39.4496 53.1754 49.2351 53.1754 61.2627C53.1754 73.2893 43.3899 83.0758 31.3623 83.0758ZM31.3623 43.0136C21.2981 43.0136 13.099 51.199 13.099 61.2769C13.099 71.3547 21.2844 79.5401 31.3623 79.5401C41.4401 79.5401 49.6255 71.3547 49.6255 61.2769C49.6255 51.199 41.4401 43.0136 31.3623 43.0136ZM108.298 82.7552H48.2328C47.2579 82.7552 46.451 81.9619 46.451 80.9734C46.451 79.9849 47.2443 79.1917 48.2328 79.1917H108.298C112.237 79.1917 115.536 76.4213 116.343 72.7328H84.4812C83.7714 74.598 81.9615 75.9204 79.8459 75.9204H62.2652C60.1494 75.9204 58.3541 74.598 57.6298 72.7328H55.4305C54.4556 72.7328 53.6488 71.9395 53.6488 70.951C53.6488 69.9625 54.442 69.1693 55.4305 69.1693H59.0775C60.0524 69.1693 60.8593 69.9625 60.8593 70.951C60.8593 71.7307 61.4856 72.357 62.2653 72.357H79.846C80.6257 72.357 81.252 71.7307 81.252 70.951C81.252 69.9761 82.0452 69.1693 83.0337 69.1693H110.387V32.0302C110.387 31.0553 111.18 30.2484 112.168 30.2484C113.157 30.2484 113.95 31.0417 113.95 32.0302V69.1693H118.321C119.296 69.1693 120.103 69.9625 120.103 70.951C120.103 77.4516 114.813 82.7417 108.312 82.7417L108.298 82.7552ZM102.381 64.0879L57.2805 64.0889C56.3057 64.0889 55.4988 63.2956 55.4988 62.3072C55.4988 61.3187 56.2921 60.5254 57.2805 60.5254H100.599V34.7585C100.599 33.7836 101.392 32.9767 102.381 32.9767C103.369 32.9767 104.163 33.77 104.163 34.7585V62.3052C104.163 63.28 103.369 64.0869 102.381 64.0869L102.381 64.0879ZM80.6798 59.5224C79.7049 59.5224 78.8981 58.7292 78.8981 57.7407V56.3764C78.8981 51.7127 75.0977 47.9133 70.435 47.9133C65.7713 47.9133 61.9718 51.7137 61.9718 56.3764V57.7407C61.9718 58.7156 61.1785 59.5224 60.1901 59.5224C59.2016 59.5224 58.4083 58.7292 58.4083 57.7407V56.3764C58.4083 51.0866 61.8466 46.5763 66.6072 44.9762C63.7118 43.5566 61.7076 40.5777 61.7076 37.1395C61.7076 32.3371 65.6186 28.4258 70.4213 28.4258C75.2237 28.4258 79.135 32.3369 79.135 37.1395C79.135 40.5777 77.1308 43.5566 74.2354 44.9762C78.996 46.5774 82.4342 51.0729 82.4342 56.3764V57.7407C82.4342 58.7156 81.6409 59.5224 80.6525 59.5224H80.6798ZM70.435 31.9882C67.5814 31.9882 65.2704 34.2991 65.2704 37.1528C65.2704 40.0064 67.5813 42.3173 70.435 42.3173C73.2886 42.3173 75.5995 40.0064 75.5995 37.1528C75.5995 34.2992 73.2886 31.9882 70.435 31.9882ZM41.6355 39.2122C40.6606 39.2122 39.8537 38.4189 39.8537 37.4304V23.6911C39.8537 22.7162 40.647 21.9094 41.6355 21.9094H79.2766C80.2515 21.9094 81.0584 22.7026 81.0584 23.6911C81.0584 24.6796 80.2651 25.4729 79.2766 25.4729H43.4053V37.4304C43.4053 38.4053 42.612 39.2122 41.6235 39.2122H41.6355ZM32.8102 37.0964C31.8353 37.0964 31.0284 36.3031 31.0284 35.3146V18.5691C31.0284 14.727 33.9238 11.5955 37.4873 11.5955H77.0474C78.0223 11.5955 78.8292 12.3888 78.8292 13.3772C78.8292 14.3657 78.0359 15.159 77.0474 15.159H37.4873C35.8862 15.159 34.5783 16.6902 34.5783 18.5835V35.3291C34.5783 36.3039 33.785 37.1108 32.7965 37.1108L32.8102 37.0964ZM83.4914 33.8115C83.0321 33.8115 82.5865 33.6445 82.2524 33.3105C81.7097 32.7813 81.5562 31.9599 81.8903 31.2782L84.981 24.8057C82.8652 22.1743 81.7098 19.0428 81.7098 15.827C81.7098 11.5402 83.6867 7.53097 87.2639 4.52375C90.7576 1.60005 95.3792 0 100.279 0C105.178 0 109.814 1.61475 113.307 4.52375C116.899 7.5163 118.862 11.5392 118.862 15.827C118.862 20.1139 116.885 24.1231 113.307 27.1303C109.814 30.054 105.192 31.6541 100.279 31.6541C97.2716 31.6541 94.3208 31.0414 91.676 29.8587L84.285 33.631C84.0345 33.7563 83.7558 33.8262 83.4781 33.8262L83.4914 33.8115ZM91.6622 26.1001C91.9409 26.1001 92.205 26.17 92.4555 26.2953C94.8082 27.4789 97.5221 28.1052 100.292 28.1052C108.575 28.1052 115.326 22.5928 115.326 15.828C115.326 9.0631 108.588 3.55078 100.292 3.55078C91.9961 3.55078 85.2586 9.0631 85.2586 15.828C85.2586 18.5565 86.3306 21.1315 88.3764 23.3025C88.8775 23.8317 89.0027 24.625 88.6823 25.293L87.3462 28.1049L90.8543 26.3231C91.1048 26.1979 91.3835 26.1279 91.6612 26.1279L91.6622 26.1001Z" fill="#262626"/>
</svg>
