<svg width="38" height="22" viewBox="0 0 38 22" fill="none" xmlns="http://www.w3.org/2000/svg">
<path d="M9.57178 5.78957H16.4839V6.33631H10.2054V10.4513H16.1094V10.998H10.2054V15.5158H16.5559V16.0626H9.57178V5.78957ZM17.1031 5.78957H17.8375L21.0919 10.3074L24.4183 5.78957L28.9428 0.0509033L21.5095 10.7822L25.3399 16.0626H24.5767L21.0919 11.257L17.5927 16.0626H16.8439L20.7031 10.7822L17.1031 5.78957ZM25.6135 6.33631V5.78957H33.4904V6.33631H29.8616V16.0626H29.228V6.33631H25.6135Z" fill="black"/>
<path d="M0.924805 5.78955H1.71681L12.6381 22.0538L8.12488 16.0625L1.58721 6.5665L1.55841 16.0625H0.924805V5.78955Z" fill="black"/>
<path d="M33.4267 15.3508C33.5577 15.3508 33.6533 15.2509 33.6533 15.1219C33.6533 14.993 33.5577 14.8931 33.4267 14.8931C33.2973 14.8931 33.2002 14.993 33.2002 15.1219C33.2002 15.2509 33.2973 15.3508 33.4267 15.3508ZM34.0493 14.7488C34.0493 15.1296 34.3252 15.3784 34.7274 15.3784C35.1558 15.3784 35.4147 15.1219 35.4147 14.6766V13.1087H35.0695V14.6751C35.0695 14.9223 34.9447 15.0544 34.7243 15.0544C34.5271 15.0544 34.393 14.9315 34.3884 14.7488H34.0493ZM35.8663 14.7288C35.8909 15.125 36.2222 15.3784 36.7154 15.3784C37.2424 15.3784 37.5722 15.1127 37.5722 14.6889C37.5722 14.3556 37.3842 14.1714 36.9281 14.0654L36.683 14.0055C36.3933 13.9379 36.2762 13.8473 36.2762 13.6892C36.2762 13.4895 36.458 13.359 36.7308 13.359C36.9897 13.359 37.1685 13.4865 37.2008 13.6907H37.5368C37.5168 13.3175 37.187 13.0549 36.7354 13.0549C36.25 13.0549 35.9264 13.3175 35.9264 13.7122C35.9264 14.0378 36.1097 14.2313 36.512 14.3249L36.7986 14.394C37.093 14.4631 37.2224 14.5645 37.2224 14.7334C37.2224 14.93 37.019 15.0728 36.7416 15.0728C36.4442 15.0728 36.2377 14.9392 36.2084 14.7288H35.8663Z" fill="black"/>
</svg>
