<svg width="55" height="22" viewBox="0 0 55 22" fill="none" xmlns="http://www.w3.org/2000/svg">
<path d="M33.492 14.4833H34.9479V9.14705H33.492V14.4833ZM33.4302 7.76758C33.4302 7.29348 33.6943 7.05652 34.2225 7.05652C34.7505 7.05652 35.0148 7.29348 35.0148 7.76758C35.0148 7.99359 34.9487 8.16937 34.8167 8.2951C34.6846 8.42083 34.4866 8.48352 34.2225 8.48352C33.6943 8.48352 33.4302 8.24487 33.4302 7.76758Z" fill="#0C344B"/>
<path fill-rule="evenodd" clip-rule="evenodd" d="M27.6019 11.4046C28.0714 11.0068 28.306 10.4326 28.306 9.68161C28.306 8.95926 28.0857 8.4159 27.645 8.05152C27.2043 7.68748 26.5608 7.50513 25.7143 7.50513H23.4854V14.4832H24.9649V12.0012H25.5998C26.4653 12.0012 27.1327 11.8025 27.6019 11.4046ZM25.4518 10.7889H24.9649V8.71758H25.6379C26.0421 8.71758 26.3387 8.80017 26.5281 8.96567C26.7174 9.13117 26.8121 9.38735 26.8121 9.7342C26.8121 10.0777 26.6992 10.3394 26.4732 10.5192C26.2472 10.6991 25.9069 10.7889 25.4518 10.7889Z" fill="#0C344B"/>
<path d="M32.72 9.08973C32.5896 9.06108 32.4257 9.04675 32.2284 9.04675C31.8974 9.04675 31.5911 9.13827 31.3097 9.32113C31.0294 9.50264 30.7989 9.75121 30.6389 10.0443H30.5675L30.3526 9.14703H29.25V14.4833H30.7058V11.7674C30.7058 11.3378 30.8354 11.0036 31.0946 10.765C31.3542 10.5263 31.716 10.407 32.1807 10.407C32.3494 10.407 32.4925 10.423 32.6103 10.4547L32.72 9.08973ZM39.5028 14.1492C39.8832 13.8627 40.0733 13.4461 40.0733 12.8987C40.0733 12.6346 40.0273 12.407 39.9349 12.2161C39.8427 12.0251 39.6993 11.8566 39.5053 11.7101C39.3113 11.5639 39.0058 11.4064 38.5888 11.2377C38.1211 11.05 37.8181 10.9082 37.6797 10.8129C37.5414 10.7175 37.4719 10.6045 37.4719 10.4739C37.4719 10.2417 37.6868 10.1256 38.1164 10.1256C38.3581 10.1256 38.5952 10.1621 38.8275 10.2351C39.0597 10.3086 39.3096 10.4023 39.5769 10.5169L40.016 9.46692C39.4082 9.18698 38.783 9.04692 38.1402 9.04692C37.4655 9.04692 36.9447 9.17653 36.5773 9.4359C36.2094 9.69528 36.0257 10.0619 36.0257 10.5359C36.0257 10.8129 36.0695 11.0459 36.1572 11.2352C36.2445 11.4246 36.3845 11.5925 36.5773 11.7388C36.7695 11.8853 37.0713 12.0444 37.4815 12.2161C37.7679 12.3371 37.9971 12.4428 38.169 12.5334C38.3407 12.6243 38.4617 12.7054 38.5318 12.777C38.6018 12.8486 38.6367 12.9416 38.6367 13.0562C38.6367 13.3616 38.3726 13.5143 37.8442 13.5143C37.5865 13.5143 37.2882 13.4714 36.9494 13.3856C36.6103 13.2996 36.3058 13.1931 36.0353 13.0657V14.2685C36.2825 14.3729 36.5401 14.4505 36.8038 14.4999C37.0775 14.5525 37.4084 14.5788 37.7967 14.5788C38.5538 14.5788 39.1226 14.4356 39.5028 14.149V14.1492ZM45.8405 14.4833H44.3846V11.3665C44.3846 10.9816 44.3201 10.6927 44.1915 10.5002C44.0624 10.3077 43.8596 10.2113 43.5827 10.2113C43.2106 10.2113 42.9401 10.3482 42.7714 10.6219C42.6027 10.8956 42.5184 11.3458 42.5184 11.9727V14.4833H41.0626V9.14703H42.1748L42.3704 9.82961H42.4517C42.5948 9.58455 42.8017 9.39276 43.0721 9.25439C43.3426 9.11602 43.6528 9.04675 44.0029 9.04675C44.8016 9.04675 45.3424 9.30782 45.6257 9.82961H45.7545C45.8978 9.58135 46.1086 9.38888 46.387 9.25203C46.6654 9.11518 46.9796 9.04675 47.3296 9.04675C47.9342 9.04675 48.3918 9.20198 48.7019 9.51208C49.0121 9.82236 49.1672 10.3195 49.1672 11.0036V14.4833H47.7067V11.3665C47.7067 10.9816 47.6421 10.6927 47.5135 10.5002C47.3844 10.3077 47.1817 10.2113 46.9048 10.2113C46.5485 10.2113 46.282 10.3388 46.1052 10.5932C45.9288 10.8479 45.8405 11.2519 45.8405 11.8055V14.4833Z" fill="#0C344B"/>
<path fill-rule="evenodd" clip-rule="evenodd" d="M53.5512 13.7577L53.8328 14.4833H54.8494V10.9273C54.8494 10.2909 54.6585 9.8168 54.2767 9.50501C53.8948 9.19321 53.3459 9.03715 52.63 9.03715C51.8823 9.03715 51.2013 9.19793 50.5871 9.51933L51.0691 10.5026C51.645 10.2447 52.1462 10.116 52.5726 10.116C53.1263 10.116 53.4032 10.3865 53.4032 10.9273V11.1612L52.4773 11.1899C51.6786 11.2185 51.0813 11.3673 50.6849 11.6362C50.2888 11.9051 50.0908 12.3228 50.0908 12.8891C50.0908 13.4301 50.2379 13.8469 50.5322 14.1396C50.8266 14.4324 51.2297 14.5786 51.7423 14.5786C52.1591 14.5786 52.4971 14.519 52.7564 14.3997C53.0157 14.2803 53.2679 14.0665 53.5129 13.7577H53.5512ZM52.84 12.0299L53.4032 12.0108V12.4499C53.4032 12.7714 53.3021 13.0291 53.1 13.2231C52.8981 13.4173 52.6283 13.5143 52.291 13.5143C51.8201 13.5143 51.5847 13.3091 51.5847 12.8987C51.5847 12.6122 51.688 12.3991 51.895 12.2591C52.1018 12.1192 52.4168 12.0427 52.84 12.0299ZM16.0535 17.1426L6.36618 20.0077C6.07023 20.0954 5.78659 19.8394 5.84878 19.5409L9.30952 2.96695C9.37423 2.65717 9.80266 2.60796 9.93782 2.89498L16.3456 16.502C16.4664 16.7587 16.3286 17.0614 16.0535 17.1426ZM17.7148 16.4668L10.2955 0.711582V0.711245C10.2033 0.517236 10.0603 0.351789 9.88171 0.232449C9.70311 0.11311 9.49555 0.0443248 9.28103 0.0333889C8.82952 0.00709709 8.42503 0.224847 8.19683 0.59546L0.1502 13.6284C0.0279558 13.8253 -0.0356391 14.0529 -0.0331317 14.2847C-0.0306243 14.5164 0.0378815 14.7426 0.164357 14.9368L4.09768 21.0297C4.33211 21.3934 4.73828 21.6039 5.16047 21.6039C5.28013 21.6039 5.40047 21.5871 5.51878 21.552L16.9362 18.1752C17.108 18.1249 17.2671 18.0382 17.4026 17.9211C17.5381 17.804 17.6468 17.6591 17.7215 17.4964C17.7953 17.3345 17.8329 17.1586 17.8317 16.9807C17.8305 16.8029 17.7906 16.6275 17.7148 16.4666V16.4668Z" fill="#0C344B"/>
</svg>
