<svg width="19" height="19" viewBox="0 0 19 19" fill="none" xmlns="http://www.w3.org/2000/svg">
<path d="M9.55556 13.1426C14.2807 13.1426 18.1111 11.68 18.1111 9.87592C18.1111 8.07179 14.2807 6.60925 9.55556 6.60925C4.83045 6.60925 1 8.07179 1 9.87592C1 11.68 4.83045 13.1426 9.55556 13.1426Z" stroke="#61DAFB" stroke-width="1.13969"/>
<path d="M6.72668 11.5094C9.08923 15.6014 12.2711 18.1874 13.8335 17.2854C15.3959 16.3833 14.7473 12.3348 12.3847 8.2427C10.0222 4.15064 6.84034 1.56464 5.27792 2.46671C3.7155 3.36877 4.36413 7.41731 6.72668 11.5094Z" stroke="#61DAFB" stroke-width="1.13969"/>
<path d="M6.7263 8.24276C4.36375 12.3348 3.71512 16.3834 5.27754 17.2854C6.83996 18.1875 10.0218 15.6015 12.3843 11.5094C14.7469 7.41737 15.3955 3.36883 13.8331 2.46676C12.2707 1.5647 9.08885 4.1507 6.7263 8.24276Z" stroke="#61DAFB" stroke-width="1.13969"/>
</svg>
