<svg width="65" height="8" viewBox="0 0 65 8" fill="none" xmlns="http://www.w3.org/2000/svg">
<g clip-path="url(#clip0_29_171)">
<path fill-rule="evenodd" clip-rule="evenodd" d="M7.34382 0C5.58769 0 4.4904 0.872774 4.05118 2.61832C4.70976 1.74555 5.47801 1.41832 6.35595 1.63639C6.85685 1.76077 7.21505 2.12206 7.61118 2.52206C8.25685 3.17342 9.00421 3.92723 10.6362 3.92723C12.3921 3.92723 13.4896 3.05445 13.9286 1.30916C13.2703 2.18194 12.502 2.50916 11.6241 2.29084C11.1229 2.16645 10.7647 1.80516 10.3686 1.40542C9.72292 0.753548 8.97582 0 7.34382 0ZM4.05118 3.92723C2.29531 3.92723 1.19776 4.8 0.758789 6.54555C1.41737 5.67277 2.18563 5.34555 3.06331 5.56361C3.56447 5.688 3.92266 6.04929 4.31879 6.44929C4.96447 7.10064 5.71156 7.85445 7.34382 7.85445C9.09969 7.85445 10.1972 6.98194 10.6362 5.23639C9.97763 6.10916 9.20937 6.43639 8.33143 6.21832C7.83053 6.09368 7.47234 5.73239 7.07621 5.33264C6.43053 4.68129 5.68318 3.92723 4.05118 3.92723Z" fill="#38BDF8"/>
<path fill-rule="evenodd" clip-rule="evenodd" d="M20.5126 3.30972H19.3634V5.52056C19.3634 6.11024 19.7526 6.10095 20.5126 6.06404V6.95772C18.974 7.14198 18.3624 6.71824 18.3624 5.52056V3.30972H17.5098V2.35153H18.3624V1.11436L19.3634 0.819397V2.35153H20.5126V3.30972ZM24.893 2.35153H25.8938V6.95772H24.893V6.29449C24.5407 6.78249 23.9939 7.07746 23.2711 7.07746C22.0107 7.07746 20.9634 6.01811 20.9634 4.65449C20.9634 3.28211 22.0107 2.23178 23.2711 2.23178C23.9939 2.23178 24.5407 2.52649 24.893 3.00572V2.35153ZM23.4287 6.12856C24.2628 6.12856 24.893 5.51127 24.893 4.65449C24.893 3.79772 24.2628 3.18069 23.4287 3.18069C22.5947 3.18069 21.9645 3.79798 21.9645 4.65449C21.9645 5.51127 22.5947 6.12856 23.4287 6.12856ZM27.5619 1.66069C27.2099 1.66069 26.9227 1.36598 26.9227 1.02507C26.9235 0.856125 26.9912 0.694384 27.111 0.575257C27.2308 0.456129 27.3929 0.389323 27.5619 0.389461C27.7309 0.389254 27.8931 0.456031 28.0129 0.575165C28.1328 0.6943 28.2006 0.856081 28.2014 1.02507C28.2014 1.36572 27.9142 1.66069 27.5619 1.66069ZM27.0615 6.95772V2.35153H28.0625V6.95772H27.0615ZM29.221 6.95772V0.2323H30.2218V6.95746H29.221V6.95772ZM36.7185 2.35153H37.7751L36.3201 6.95772H35.3376L34.3738 3.8532L33.4006 6.95772H32.4184L30.9632 2.35153H32.0197L32.9188 5.52959L33.892 2.35153H34.8465L35.8102 5.52959L36.7185 2.35153ZM39.0169 1.66069C38.6646 1.66069 38.3774 1.36598 38.3774 1.02507C38.3782 0.856081 38.446 0.6943 38.5658 0.575165C38.6857 0.456031 38.8479 0.389254 39.0169 0.389461C39.1859 0.389254 39.348 0.456031 39.4679 0.575165C39.5878 0.6943 39.6555 0.856081 39.6563 1.02507C39.6563 1.36572 39.3691 1.66069 39.0169 1.66069ZM38.5165 6.95772V2.35153H39.5172V6.95772H38.5165ZM43.1131 2.23178C44.1511 2.23178 44.8925 2.93191 44.8925 4.12959V6.95746H43.8917V4.23075C43.8917 3.53062 43.484 3.16236 42.8538 3.16236C42.1957 3.16236 41.6767 3.5492 41.6767 4.48882V6.95772H40.6757V2.35153H41.6767V2.9412C41.9825 2.46224 42.4829 2.23178 43.1131 2.23178ZM49.6375 0.509203H50.6385V6.95746H49.6375V6.29424C49.2855 6.78249 48.7387 7.0772 48.0158 7.0772C46.7554 7.0772 45.7082 6.01785 45.7082 4.65424C45.7082 3.28185 46.7554 2.23153 48.0158 2.23153C48.7387 2.23153 49.2855 2.52624 49.6375 3.00546V0.509203ZM48.1732 6.12856C49.0073 6.12856 49.6375 5.51127 49.6375 4.65449C49.6375 3.79772 49.0073 3.18069 48.1732 3.18069C47.3392 3.18069 46.709 3.79798 46.709 4.65449C46.709 5.51127 47.3392 6.12856 48.1732 6.12856ZM53.9934 7.07746C52.5939 7.07746 51.5467 6.01811 51.5467 4.65449C51.5467 3.28211 52.5939 2.23178 53.9934 2.23178C54.9015 2.23178 55.6894 2.70146 56.06 3.42017L55.198 3.91772C54.9941 3.48469 54.5402 3.2083 53.9841 3.2083C53.1686 3.2083 52.5477 3.82559 52.5477 4.65449C52.5477 5.48365 53.1686 6.10095 53.9841 6.10095C54.5402 6.10095 54.9942 5.81527 55.2166 5.39153L56.0785 5.87978C55.6894 6.60753 54.9015 7.0772 53.9934 7.0772V7.07746ZM57.7281 3.62275C57.7281 4.4612 60.2212 3.95436 60.2212 5.65888C60.2212 6.58017 59.4148 7.07746 58.414 7.07746C57.4873 7.07746 56.82 6.66275 56.5234 5.99953L57.3854 5.50224C57.5335 5.91669 57.9043 6.16546 58.414 6.16546C58.8589 6.16546 59.2016 6.01811 59.2016 5.64933C59.2016 4.82972 56.7087 5.29036 56.7087 3.64133C56.7087 2.77527 57.4594 2.23178 58.4047 2.23178C59.1647 2.23178 59.7949 2.58198 60.1193 3.18998L59.276 3.65965C59.109 3.30043 58.7846 3.13449 58.4047 3.13449C58.0432 3.13449 57.7281 3.29114 57.7281 3.62275ZM62.0006 3.62275C62.0006 4.4612 64.4935 3.95436 64.4935 5.65888C64.4935 6.58017 63.6873 7.07746 62.6863 7.07746C61.7596 7.07746 61.0925 6.66275 60.7957 5.99953L61.6576 5.50224C61.806 5.91669 62.1766 6.16546 62.6863 6.16546C63.1312 6.16546 63.4742 6.01811 63.4742 5.64933C63.4742 4.82972 60.9812 5.29036 60.9812 3.64133C60.9812 2.77527 61.7317 2.23178 62.6772 2.23178C63.437 2.23178 64.0672 2.58198 64.3916 3.18998L63.5482 3.65965C63.3815 3.30043 63.0571 3.13449 62.6772 3.13449C62.3157 3.13449 62.0006 3.29114 62.0006 3.62275Z" fill="black"/>
</g>
<defs>
<clipPath id="clip0_29_171">
<rect width="64" height="8" fill="white" transform="translate(0.758789)"/>
</clipPath>
</defs>
</svg>
